<svg xmlns="http://www.w3.org/2000/svg"><style>:root svg:not(:target){display:none}</style><svg fill="#fff" viewBox="0 0 24 24" id="action-icon"><path d="M9.103.435a1.753 1.753 0 0 1 1.652-.362c.218.072.406.203.609.333.16.101.348.145.493.261.072.058.014.16.014.232.189.45.29.942.13 1.42-.13.16-.362.203-.55.276-.03.203.043.39.072.594-.043.029-.072.058-.116.087.276-.015.551-.073.827-.13.101-.102.26-.044.39-.059.015-.203.088-.391.088-.594a.34.34 0 0 0 .116-.029c.014.145 0 .29.043.435.073.058.189.029.276.043 0 .058 0 .116.014.174 1.681-.014 3.377 0 5.058 0v.247h.16V2.42h.188c0 .26-.014.507 0 .768a.11.11 0 0 0 .073.029c0 .029.014.087.014.116.058-.058.13-.102.218-.073.014.044.029.087.043.145-.058.058-.087.13-.058.218.464.014.928 0 1.406 0 .044-.058.116-.087.189-.116a.464.464 0 0 1 .087.058h.68a.874.874 0 0 1 .015.333h-.696a.46.46 0 0 1-.087.073c-.072-.044-.13-.073-.202-.116h-1.261c-.247.072-.508.058-.754.014v.275H16.16a.532.532 0 0 1-.29.13c.044.218-.202.276-.29.436a.45.45 0 0 1-.231.174c-.073.449.087.87.203 1.29-.13.029-.276.072-.406.101-.073.29-.145.594-.203.884a.848.848 0 0 1-.507.58c-.174.203-.406.406-.682.42-.101.03-.174-.043-.246-.101-.362.029-.696-.145-1.015-.29-.347-.16-.666-.363-1-.55.03.202-.072.376-.145.55.16.072.377.13.464.304.058.13.116.276.116.435-.014.522-.072 1.044-.101 1.565.014.377-.174.754-.435 1.03-.174-.015-.319-.088-.478-.16-.058.13-.189.26-.116.42.058.189.058.392.145.566a6.674 6.674 0 0 1 1.217 1.753c.304.624.536 1.276.783 1.928.043 0 .13-.015.174-.015.058.189 0 .406.116.58.101.16.072.348.072.536-.029.435-.058.87-.101 1.305-.03.304-.102.609-.145.913.014.232.116.464.101.696-.014.217-.014.449-.188.608.014.493-.116.986.058 1.464.232.32.493.623.768.899.304.145.667.174.928.435.1.16.043.347.014.521a6.732 6.732 0 0 1-1.87 0c-.246-.058-.478-.159-.724-.188-.334.014-.725.145-1.03-.087-.028-.391.117-.768.189-1.145.029-.13.16-.217.145-.348-.03-.45-.058-.913-.087-1.362-.058-.03-.16-.058-.145-.145 0-.218-.072-.435-.13-.638a10.821 10.821 0 0 1-.16-1.681c-.014-.16.087-.276.203-.377.03-.246.058-.507.073-.754-.044-.13-.145-.232-.203-.348-.261.03-.638.087-.797-.188-.377-.565-.769-1.145-1.145-1.71-.16-.015-.348 0-.493-.102-.16-.174-.261-.405-.363-.623-.043.174-.072.362-.174.507-.087.145-.231.247-.333.377-.101.232-.188.464-.275.696-.102.29-.247.58-.276.899a1.543 1.543 0 0 1-.101.449c-.073.116-.203.16-.319.217-.087.189-.145.377-.275.537-.087.101-.232.13-.29.26-.058.174-.145.334-.218.493-.029.174.087.363.03.536-.102.435-.32.841-.522 1.232-.102.29-.174.595-.32.87-.057.116-.202.145-.318.16-.13.318-.276.623-.362.956a5.437 5.437 0 0 0-.03.971c0 .145.088.261.146.391.057.174.014.348-.015.522-.565.073-1.145.13-1.696-.043-.058-.044-.043-.116-.058-.174-.043-.261-.072-.536.015-.783.188-.681.348-1.362.536-2.043-.072-.073-.174-.13-.174-.247-.014-.188 0-.391.044-.58.087-.319.318-.565.434-.87.044-.13.03-.26.044-.39 0-.305.174-.551.304-.812.13-.218.232-.45.406-.638.116-.101.116-.26.203-.391.087-.16.232-.29.232-.479.029-.231-.058-.463-.03-.695.059-.681.19-1.348.305-2.03-.058-.072-.145-.144-.174-.246.015-.072.03-.13.044-.203l-.13-.217c.057-.087.115-.188.173-.275-.058-.044-.13-.102-.188-.145.072-.218.043-.537.304-.638.03.014.102.029.13.043-.043-.376-.043-.768-.086-1.145a3.534 3.534 0 0 1-.073-1.232c.145-.217.42-.304.667-.318-.319-.073-.638-.102-.942-.203-.015-.261.029-.522.072-.783.13-.507.073-1.029.145-1.55.073-.146.261-.175.42-.146.189.03.377-.029.566-.087 0-.072.014-.16 0-.232-.116-.507-.087-1.029 0-1.521.116-.638.377-1.261.855-1.71.319-.305.783-.45 1.217-.435.145 0 .232.145.348.232.058-.058.116-.116.16-.174-.073-.247-.189-.508-.174-.769.029-.58.217-1.174.652-1.565m4.522 4.102c.029.029.029.029 0 0m.203.029c.014.101.043.203-.015.29-.072.029-.16.029-.232.072.203 0 .406.015.61 0 .159-.043.1-.246.1-.362-.1-.116-.318-.044-.463 0m-.507.609c.145.159.217.405.347.565.189-.247.334-.508.551-.725-.26-.015-.522.015-.782-.015-.044.058-.073.116-.116.174z"></path></svg><svg fill="#525252" viewBox="0 0 300.003 300.003" id="back-icon"><path d="M150 0C67.159 0 .001 67.159.001 150c0 82.838 67.157 150.003 149.997 150.003S300.002 232.838 300.002 150C300.002 67.159 232.839 0 150 0zm39.226 218.202a13.968 13.968 0 0 1-9.902 4.101 13.955 13.955 0 0 1-9.902-4.103l-56.295-56.292a13.898 13.898 0 0 1-2.368-1.886c-2.796-2.799-4.145-6.479-4.077-10.144-.065-3.667 1.281-7.35 4.077-10.146a14.146 14.146 0 0 1 2.368-1.886l56.043-56.043c5.47-5.465 14.34-5.467 19.808.003 5.47 5.467 5.47 14.335 0 19.808l-48.265 48.265 48.514 48.516c5.468 5.469 5.468 14.337-.001 19.807z"></path></svg><svg fill="#fff" viewBox="0 0 512 512" id="checked-icon"><path d="M256 0C114.837 0 0 114.843 0 256s114.837 256 256 256 256-114.843 256-256S397.163 0 256 0zm120.239 227.501-118.891 118.89c-13.043 13.043-34.174 13.044-47.218 0l-68.804-68.804c-13.044-13.038-13.044-34.179 0-47.218 13.044-13.044 34.174-13.044 47.218 0l45.195 45.19 95.282-95.278c13.044-13.044 34.174-13.044 47.218 0 13.044 13.04 13.044 34.181 0 47.22z"></path></svg><svg fill="#fff" viewBox="0 0 984.264 984.264" id="games-icon"><path d="M52.832 896.588c23.7 15.7 55.1 12.8 75.7-6.8 0 0 117.9-100.9 152.8-128.9 10.8-8.7 24.3-13.399 38.2-13.399h345.2c13.899 0 27.399 4.699 38.2 13.399 34.899 28 152.8 128.9 152.8 128.9 20.6 19.6 52 22.5 75.7 6.8 77.6-51.6 52.1-189.9 33.1-266.9-15.7-63.8-37.8-126.1-63.1-186.7-37.301-89.2-118.801-202.8-232.2-178.5-11.3 2.7-23.9 9.3-33.101 14.9-9.5 5.7-20.399 8.8-31.5 8.8h-72.5v-170.6c0-22.1-17.899-40-40-40-22.1 0-40 17.9-40 40v170.5h-72.5c-11.1 0-22-3-31.5-8.8-9.199-5.5-21.8-12.1-33.1-14.9-113.3-24.3-194.9 89.3-232.2 178.5-25.3 60.7-47.3 123-63.1 186.8-18.999 77-44.499 215.301 33.101 266.9zm679.799-521.5c24 0 43.5 19.5 43.5 43.5s-19.5 43.5-43.5 43.5-43.5-19.5-43.5-43.5 19.5-43.5 43.5-43.5zm-103 126.6c24 0 43.5 19.5 43.5 43.5s-19.5 43.5-43.5 43.5-43.5-19.5-43.5-43.5 19.5-43.5 43.5-43.5zm-431.599-48.5h50.6v-50.6c0-16.6 13.4-30 30-30s30 13.4 30 30v50.6h50.601c16.6 0 30 13.4 30 30 0 16.601-13.4 30-30 30h-50.601v50.601c0 16.6-13.399 30-30 30s-30-13.4-30-30v-50.601h-50.6c-16.6 0-30-13.399-30-30 0-16.6 13.5-30 30-30z"></path></svg><svg fill="#fff" viewBox="0 0 48 48" id="heart-icon"><g data-name="Layer 2"><path fill="none" d="M0 0h48v48H0z" data-name="invisible box"></path><path d="M34 4c-3.9 0-8 3.1-10 6.5C22 7.1 17.9 4 14 4a12 12 0 0 0-8.5 3.6A11.9 11.9 0 0 0 2 16.1c0 4.1 2.7 7.6 5 10.2l16.3 17.4a1 1 0 0 0 1.4 0L41 26.3c2.3-2.6 5-6.1 5-10.2A12.1 12.1 0 0 0 34 4Z" data-name="icons Q2"></path></g></svg><svg viewBox="0 0 64 64" aria-hidden="true" class="iconify iconify--emojione-monotone" id="racing-icon"><path d="m62 45.283-2.047-4.159-5.036 2.913-.159-.149c.04-.025.081-.045.12-.073 0 0 4.599-2.725 4.713-2.807 1.647-1.193 1.566-4.324-.18-6.994-1.748-2.672-4.503-3.869-6.15-2.678l-4.36 2.6c-.122.06-.24.129-.353.21-.767.554-.936 1.824-.755 3.19l-.141-.133V33.39l-4.379-6.938-2.547-1.684s.364-.201.497-.294c1.899-1.377 1.808-4.986-.208-8.066-2.015-3.077-5.191-4.462-7.091-3.086l-8.839 5.271.068 1.134-.608.333-5.519-2.142v-1.245l7.669-4.047L22.72 9 2 16.758l6.138 5.664 6.857-3.619v1.766l3.641 2.727-1.768.967-2.34-.535-3.629 2.072v.605l-5.439 3.24c-.16.077-.315.169-.463.275-1.976 1.43-.915 6.5.712 8.988 1.706 2.604 3.879 4.22 5.768 4.22a3 3 0 0 0 1.791-.579l5.689-3.389a3.09 3.09 0 0 0 .465-.276 3.3 3.3 0 0 0 .85-.929l4.949 3.72 6.562 1.486c-.1.055-.2.109-.294.178-1.746 1.262-.81 5.739.627 7.937C33.622 53.574 35.541 55 37.207 55c.564 0 1.099-.163 1.579-.511l4.761-2.836 5.355 2.406L62 45.283m-3.375-3.018 1.709 3.667-1.1.736-1.9-3.633 1.291-.77M21.098 9.972l3.455 3.378-1.318.696-3.797-3.453 1.66-.621m-10.199 10.53-5.712-4.456 2.443-.915 5.052 4.431-1.783.94m38.236 14.453a1.5 1.5 0 0 1 .903-.272c1.028 0 2.609.832 3.823 2.688 1.557 2.378 1.477 4.877.43 5.634-.097.07-.199.116-.305.156l-1.467-1.379a1.21 1.21 0 0 0 .877-.229c.878-.634.834-2.3-.096-3.719-.93-1.423-2.395-2.059-3.271-1.425-.611.441-.611 1.377-.245 2.384l1.464-.826c.893-.452 2.078.783 1.481 1.701l-1.484.915-2.183-2.053c-.457-1.549-.494-3.166.073-3.575m-.151 12.751-3.84 2.375c.561-1.172.577-2.793.029-4.48l3.811 2.105m-3.96-3.555-.347.213a10.361 10.361 0 0 0-.664-1.173 10.679 10.679 0 0 0-.516-.714l.045-.025c.894-.453 2.079.783 1.482 1.699M28.391 17.155l14.33 9.553 4.391 6.933-1.172.709-4.473-6.99-14.306-9.476 1.23-.729m9.069 13.62c.116-.009.216-.085.303-.204-.421 1.755-1.562 2.642-3.746 2.642-2.859 0-6.415-1.51-6.415-4.516 0-3.007 2.318-5.443 5.178-5.443 2.496 0 4.578 1.855 5.069 4.325-.095-.139-.211-.225-.355-.214-2.879.209-6.68.181-6.801 1.261-.122 1.082 2.234 2.476 6.767 2.149M16.107 19.884v-1.668l1.92-1.013v1.402l11.594 4.498-3.39 1.625-10.124-4.844m-1.559 6.01c-.778-.25-1.535-.305-2.223-.153l1.078-.616 1.145.769m-3.071 16.234c-1.52 0-3.41-1.443-4.931-3.767-1.493-2.284-2.256-6.695-.962-7.632.379-.274.836-.414 1.359-.414 1.712 0 3.823 1.467 5.25 3.648 1.958 2.992 2.182 6.552.488 7.774a1.974 1.974 0 0 1-1.204.391m13.744-6.291-4.71-3.332a11.527 11.527 0 0 0-2.563-4.325l9.594 6.45 10.876 4.349-1.645.994-11.552-4.136M37.207 54c-1.281 0-2.952-1.284-4.255-3.271-1.407-2.152-1.899-5.841-.878-6.579.314-.228.694-.342 1.131-.342 1.475 0 3.297 1.271 4.536 3.164 1.694 2.592 1.905 5.662.458 6.708-.298.216-.623.32-.992.32m10.064-4.81 4.064 2.818-1.127.756-4.271-2.75 1.334-.824" fill="#fff"></path><path d="M6.933 32.876c-1.145.827-.673 2.974.542 4.83 1.215 1.855 2.713 2.718 3.857 1.889 1.145-.828 1.088-3.003-.125-4.858-1.216-1.858-3.129-2.689-4.274-1.861M33.197 45.95c-1.013.729-.595 2.624.476 4.265 1.072 1.638 2.395 2.397 3.405 1.666 1.012-.731.962-2.651-.11-4.289-1.073-1.64-2.76-2.372-3.771-1.642" fill="#fff"></path></svg><svg fill="#fff" viewBox="0 0 512.004 512.004" id="right-arrow"><path d="M509.501 249.969 262.035 2.502a8.497 8.497 0 0 0-6.033-2.5H8.535a8.53 8.53 0 0 0-6.033 14.566l241.434 241.434L2.502 497.435a8.534 8.534 0 0 0-1.852 9.301 8.538 8.538 0 0 0 7.885 5.265h247.467c2.27 0 4.437-.896 6.033-2.5l247.467-247.467a8.522 8.522 0 0 0-.001-12.065z"></path></svg><svg viewBox="0 0 511.893 511.893" id="right-icon"><path d="M476.84 248.107 233.64 3.2c-2.027-2.027-4.693-3.2-7.573-3.2H42.6c-5.867 0-10.667 4.8-10.667 10.667 0 2.88 1.173 5.547 3.093 7.573l237.76 237.44L35.24 493.76a10.623 10.623 0 0 0 0 15.04c2.027 2.027 4.693 3.093 7.573 3.093H226.28c2.88 0 5.547-1.173 7.573-3.2L476.84 263.04c4.16-4.053 4.16-10.773 0-14.933zM221.8 490.667H68.52l226.987-227.52a10.623 10.623 0 0 0 0-15.04L68.413 21.333h153.28l232.64 234.347L221.8 490.667z"></path></svg><svg fill="#fff" viewBox="0 0 984.264 984.264" id="simulation-icon"><path d="M52.832 896.588c23.7 15.7 55.1 12.8 75.7-6.8 0 0 117.9-100.9 152.8-128.9 10.8-8.7 24.3-13.399 38.2-13.399h345.2c13.899 0 27.399 4.699 38.2 13.399 34.899 28 152.8 128.9 152.8 128.9 20.6 19.6 52 22.5 75.7 6.8 77.6-51.6 52.1-189.9 33.1-266.9-15.7-63.8-37.8-126.1-63.1-186.7-37.301-89.2-118.801-202.8-232.2-178.5-11.3 2.7-23.9 9.3-33.101 14.9-9.5 5.7-20.399 8.8-31.5 8.8h-72.5v-170.6c0-22.1-17.899-40-40-40-22.1 0-40 17.9-40 40v170.5h-72.5c-11.1 0-22-3-31.5-8.8-9.199-5.5-21.8-12.1-33.1-14.9-113.3-24.3-194.9 89.3-232.2 178.5-25.3 60.7-47.3 123-63.1 186.8-18.999 77-44.499 215.301 33.101 266.9zm679.799-521.5c24 0 43.5 19.5 43.5 43.5s-19.5 43.5-43.5 43.5-43.5-19.5-43.5-43.5 19.5-43.5 43.5-43.5zm-103 126.6c24 0 43.5 19.5 43.5 43.5s-19.5 43.5-43.5 43.5-43.5-19.5-43.5-43.5 19.5-43.5 43.5-43.5zm-431.599-48.5h50.6v-50.6c0-16.6 13.4-30 30-30s30 13.4 30 30v50.6h50.601c16.6 0 30 13.4 30 30 0 16.601-13.4 30-30 30h-50.601v50.601c0 16.6-13.399 30-30 30s-30-13.4-30-30v-50.601h-50.6c-16.6 0-30-13.399-30-30 0-16.6 13.5-30 30-30z"></path></svg><svg viewBox="0 0 48 48" id="sports-icon"><g data-name="Layer 2"><path fill="none" d="M0 0h48v48H0z" data-name="invisible box"></path><g fill="#fff" data-name="Q3 icons"><path d="M23.9 22.3a14.5 14.5 0 0 0 4.2-5.4c-5.6-3-19.9-2.8-25.9 4.2a20.9 20.9 0 0 0-.1 5c5.7-4.7 15.7-6.7 21.8-3.8Z"></path><path d="M29.2 14.1c1.3-3.9 1.6-8.1.6-11.3A21.9 21.9 0 0 0 5 13a17.7 17.7 0 0 0-1.5 3.1c7.6-4.9 19.5-5.1 25.7-2ZM12.8 24.4c-4 .9-7.8 2.7-10.1 5.2A22.3 22.3 0 0 0 13 43.1a21.6 21.6 0 0 0 14.4 2.6c-8.1-4.1-14.2-14.4-14.6-21.3Z"></path><path d="M22.5 24.9a14.2 14.2 0 0 0-6.7-.9c.2 6.3 7.5 18.6 16.6 20.3a21.1 21.1 0 0 0 4.4-2.4c-7-2.6-13.7-10.3-14.3-17ZM25.5 24.8a14.6 14.6 0 0 0 2.6 6.3c5.4-3.3 12.3-15.8 9.3-24.5A14.6 14.6 0 0 0 35 4.9L33.1 4c1.2 7.3-2.1 17-7.6 20.8Z"></path><path d="M41.1 10.2c.5 9-5.3 19.5-11.1 23.3 2.7 3 6.2 5.4 9.5 6.1A17.5 17.5 0 0 0 43 35a21.8 21.8 0 0 0-1.9-24.8Z"></path></g></g></svg><svg fill="#fff" viewBox="0 0 24 24" id="strategy-icon"><path d="M21 3H3a1 1 0 0 0-1 1v16a1 1 0 0 0 1 1h18a1 1 0 0 0 1-1V4a1 1 0 0 0-1-1ZM5.293 8.707a1 1 0 1 1 1.414-1.414l.793.793.793-.793a1 1 0 1 1 1.414 1.414l-.793.793.793.793a1 1 0 0 1-1.414 1.414l-.793-.793-.793.793a1 1 0 0 1-1.414-1.414l.793-.793ZM19 14a1 1 0 0 1-2 0v-1.586l-.192.192A14.9 14.9 0 0 1 6.2 17H6a1 1 0 0 1 0-2h.2a12.916 12.916 0 0 0 9.193-3.808l.193-.192H14a1 1 0 0 1 0-2h4a1 1 0 0 1 1 1Z"></path></svg></svg>