<svg fill="#fff" xmlns="http://www.w3.org/2000/svg" width="800" height="800" viewBox="0 0 984.264 984.264" xml:space="preserve"><path d="M52.832 896.588c23.7 15.7 55.1 12.8 75.7-6.8 0 0 117.9-100.9 152.8-128.9 10.8-8.7 24.3-13.399 38.2-13.399h345.2c13.899 0 27.399 4.699 38.2 13.399 34.899 28 152.8 128.9 152.8 128.9 20.6 19.6 52 22.5 75.7 6.8 77.6-51.6 52.1-189.9 33.1-266.9-15.7-63.8-37.8-126.1-63.1-186.7-37.301-89.2-118.801-202.8-232.2-178.5-11.3 2.7-23.9 9.3-33.101 14.9-9.5 5.7-20.399 8.8-31.5 8.8h-72.5v-170.6c0-22.1-17.899-40-40-40-22.1 0-40 17.9-40 40v170.5h-72.5c-11.1 0-22-3-31.5-8.8-9.199-5.5-21.8-12.1-33.1-14.9-113.3-24.3-194.9 89.3-232.2 178.5-25.3 60.7-47.3 123-63.1 186.8-18.999 77-44.499 215.301 33.101 266.9zm679.799-521.5c24 0 43.5 19.5 43.5 43.5s-19.5 43.5-43.5 43.5-43.5-19.5-43.5-43.5 19.5-43.5 43.5-43.5zm-103 126.6c24 0 43.5 19.5 43.5 43.5s-19.5 43.5-43.5 43.5-43.5-19.5-43.5-43.5 19.5-43.5 43.5-43.5zm-431.599-48.5h50.6v-50.6c0-16.6 13.4-30 30-30s30 13.4 30 30v50.6h50.601c16.6 0 30 13.4 30 30 0 16.601-13.4 30-30 30h-50.601v50.601c0 16.6-13.399 30-30 30s-30-13.4-30-30v-50.601h-50.6c-16.6 0-30-13.399-30-30 0-16.6 13.5-30 30-30z"/></svg>